<?xml version="1.0" encoding="utf-8"?>
<!-- Generator: Adobe Illustrator 19.2.1, SVG Export Plug-In . SVG Version: 6.00 Build 0)  -->
<svg version="1.1" id="Capa_1" xmlns="http://www.w3.org/2000/svg" xmlns:xlink="http://www.w3.org/1999/xlink" x="0px" y="0px"
	 viewBox="0 0 1000 1000" style="enable-background:new 0 0 1000 1000;" xml:space="preserve">
<style type="text/css">
	.st0{fill:#5F5446;}
</style>
<path class="st0" d="M195.9,0.2C88.2,0.2,0,88.4,0,196v607.9c0,107.7,88.2,195.8,195.9,195.8h607.9c107.7,0,195.8-88.1,195.8-195.8
	V196c0-107.7-88.1-195.9-195.8-195.9C803.7,0.2,195.9,0.2,195.9,0.2z M533.9,186.9c94,7.6,148.6,68.3,155.1,145.9
	c5,40,3.6,69.6-2.1,91.4c53.6,1.8,116.4,25.8,120.4,113.1v85.9c-5.6,75-32.3,167.7-169.2,187.3c-30.8,4.4-65.5,1.5-110.3,1.2
	c-45.1-1.2-84.5-1-118.9-0.3c-138.9,2.5-215.5-58.5-216.2-189.3c-1.1-44.5,0.7-92.7,0.5-152.6c-0.6-37.9-0.8-77.5,0.1-114.4
	c0.3-7.2-0.7-15.1,1.2-22.8c6-84.3,73.7-133.7,152.7-144.7L533.9,186.9L533.9,186.9z M377.7,304.2c-80,13.1-84,104.4,0,115.7h151.9
	c80-13.1,84-104.4,0-115.7H377.7z M343.2,557c-82.4,12.8-83.6,116.5,2.9,127.3l279.1,1c81.7-12.7,81.5-116.3-2.9-127.3L343.2,557
	L343.2,557z"/>
</svg>
